<mxfile host="app.diagrams.net" modified="2023-12-16T08:26:56.844Z" agent="Mozilla/5.0 (Windows NT 10.0; Win64; x64) AppleWebKit/537.36 (KHTML, like Gecko) Chrome/120.0.0.0 Safari/537.36" etag="6U1w4qZK5mO1VnmS3zbj" version="22.1.11" type="github">
  <diagram name="Page-1" id="2YBvvXClWsGukQMizWep">
    <mxGraphModel dx="1433" dy="619" grid="1" gridSize="10" guides="1" tooltips="1" connect="1" arrows="1" fold="1" page="1" pageScale="1" pageWidth="850" pageHeight="1100" math="0" shadow="0">
      <root>
        <mxCell id="0" />
        <mxCell id="1" parent="0" />
        <mxCell id="CorzBwOK-foP67jDU05y-9" value="Admin" style="shape=umlLifeline;perimeter=lifelinePerimeter;whiteSpace=wrap;html=1;container=0;dropTarget=0;collapsible=0;recursiveResize=0;outlineConnect=0;portConstraint=eastwest;newEdgeStyle={&quot;edgeStyle&quot;:&quot;elbowEdgeStyle&quot;,&quot;elbow&quot;:&quot;vertical&quot;,&quot;curved&quot;:0,&quot;rounded&quot;:0};" vertex="1" parent="1">
          <mxGeometry x="50" y="423" width="100" height="457" as="geometry" />
        </mxCell>
        <mxCell id="CorzBwOK-foP67jDU05y-10" value="" style="html=1;points=[];perimeter=orthogonalPerimeter;outlineConnect=0;targetShapes=umlLifeline;portConstraint=eastwest;newEdgeStyle={&quot;edgeStyle&quot;:&quot;elbowEdgeStyle&quot;,&quot;elbow&quot;:&quot;vertical&quot;,&quot;curved&quot;:0,&quot;rounded&quot;:0};" vertex="1" parent="CorzBwOK-foP67jDU05y-9">
          <mxGeometry x="45" y="70" width="10" height="310" as="geometry" />
        </mxCell>
        <mxCell id="CorzBwOK-foP67jDU05y-11" value="sistem" style="shape=umlLifeline;perimeter=lifelinePerimeter;whiteSpace=wrap;html=1;container=0;dropTarget=0;collapsible=0;recursiveResize=0;outlineConnect=0;portConstraint=eastwest;newEdgeStyle={&quot;edgeStyle&quot;:&quot;elbowEdgeStyle&quot;,&quot;elbow&quot;:&quot;vertical&quot;,&quot;curved&quot;:0,&quot;rounded&quot;:0};" vertex="1" parent="1">
          <mxGeometry x="230" y="423" width="100" height="457" as="geometry" />
        </mxCell>
        <mxCell id="CorzBwOK-foP67jDU05y-12" value="" style="html=1;points=[];perimeter=orthogonalPerimeter;outlineConnect=0;targetShapes=umlLifeline;portConstraint=eastwest;newEdgeStyle={&quot;edgeStyle&quot;:&quot;elbowEdgeStyle&quot;,&quot;elbow&quot;:&quot;vertical&quot;,&quot;curved&quot;:0,&quot;rounded&quot;:0};" vertex="1" parent="CorzBwOK-foP67jDU05y-11">
          <mxGeometry x="45" y="80" width="10" height="220" as="geometry" />
        </mxCell>
        <mxCell id="CorzBwOK-foP67jDU05y-13" value="Memulai proses" style="html=1;verticalAlign=bottom;endArrow=block;edgeStyle=elbowEdgeStyle;elbow=vertical;curved=0;rounded=0;" edge="1" parent="1" source="CorzBwOK-foP67jDU05y-10" target="CorzBwOK-foP67jDU05y-12">
          <mxGeometry relative="1" as="geometry">
            <mxPoint x="205" y="513" as="sourcePoint" />
            <Array as="points">
              <mxPoint x="190" y="503" />
            </Array>
            <mxPoint as="offset" />
          </mxGeometry>
        </mxCell>
        <mxCell id="CorzBwOK-foP67jDU05y-15" value="database" style="shape=umlLifeline;perimeter=lifelinePerimeter;whiteSpace=wrap;html=1;container=0;dropTarget=0;collapsible=0;recursiveResize=0;outlineConnect=0;portConstraint=eastwest;newEdgeStyle={&quot;edgeStyle&quot;:&quot;elbowEdgeStyle&quot;,&quot;elbow&quot;:&quot;vertical&quot;,&quot;curved&quot;:0,&quot;rounded&quot;:0};" vertex="1" parent="1">
          <mxGeometry x="410" y="423" width="100" height="457" as="geometry" />
        </mxCell>
        <mxCell id="CorzBwOK-foP67jDU05y-16" value="" style="html=1;points=[];perimeter=orthogonalPerimeter;outlineConnect=0;targetShapes=umlLifeline;portConstraint=eastwest;newEdgeStyle={&quot;edgeStyle&quot;:&quot;elbowEdgeStyle&quot;,&quot;elbow&quot;:&quot;vertical&quot;,&quot;curved&quot;:0,&quot;rounded&quot;:0};" vertex="1" parent="CorzBwOK-foP67jDU05y-15">
          <mxGeometry x="45" y="80" width="10" height="160" as="geometry" />
        </mxCell>
        <mxCell id="CorzBwOK-foP67jDU05y-28" value="" style="html=1;points=[];perimeter=orthogonalPerimeter;outlineConnect=0;targetShapes=umlLifeline;portConstraint=eastwest;newEdgeStyle={&quot;edgeStyle&quot;:&quot;elbowEdgeStyle&quot;,&quot;elbow&quot;:&quot;vertical&quot;,&quot;curved&quot;:0,&quot;rounded&quot;:0};" vertex="1" parent="CorzBwOK-foP67jDU05y-15">
          <mxGeometry x="45" y="297" width="10" height="103" as="geometry" />
        </mxCell>
        <mxCell id="CorzBwOK-foP67jDU05y-17" value="meminta data penerimaan dan&lt;br&gt;&amp;nbsp;pengeluaran" style="html=1;verticalAlign=bottom;endArrow=block;edgeStyle=elbowEdgeStyle;elbow=vertical;curved=0;rounded=0;" edge="1" parent="1">
          <mxGeometry relative="1" as="geometry">
            <mxPoint x="105" y="570" as="sourcePoint" />
            <Array as="points">
              <mxPoint x="190" y="570" />
            </Array>
            <mxPoint x="275" y="570" as="targetPoint" />
            <mxPoint as="offset" />
          </mxGeometry>
        </mxCell>
        <mxCell id="CorzBwOK-foP67jDU05y-19" value="mengambil data penerimaan dan&lt;br&gt;pengeluaran" style="html=1;verticalAlign=bottom;endArrow=open;dashed=1;endSize=8;edgeStyle=elbowEdgeStyle;elbow=vertical;curved=0;rounded=0;" edge="1" parent="1">
          <mxGeometry relative="1" as="geometry">
            <mxPoint x="290" y="616" as="targetPoint" />
            <Array as="points">
              <mxPoint x="375" y="616" />
            </Array>
            <mxPoint x="450" y="616" as="sourcePoint" />
          </mxGeometry>
        </mxCell>
        <mxCell id="CorzBwOK-foP67jDU05y-20" value="Menampilkan laporan penerimaan&amp;nbsp;&lt;br&gt;dan pengeluaran di from" style="html=1;verticalAlign=bottom;endArrow=open;dashed=1;endSize=8;edgeStyle=elbowEdgeStyle;elbow=vertical;curved=0;rounded=0;" edge="1" parent="1">
          <mxGeometry relative="1" as="geometry">
            <mxPoint x="110" y="769" as="targetPoint" />
            <Array as="points">
              <mxPoint x="195" y="769" />
            </Array>
            <mxPoint x="450" y="769" as="sourcePoint" />
          </mxGeometry>
        </mxCell>
        <mxCell id="CorzBwOK-foP67jDU05y-22" value="Laporan" style="shape=umlLifeline;perimeter=lifelinePerimeter;whiteSpace=wrap;html=1;container=0;dropTarget=0;collapsible=0;recursiveResize=0;outlineConnect=0;portConstraint=eastwest;newEdgeStyle={&quot;edgeStyle&quot;:&quot;elbowEdgeStyle&quot;,&quot;elbow&quot;:&quot;vertical&quot;,&quot;curved&quot;:0,&quot;rounded&quot;:0};" vertex="1" parent="1">
          <mxGeometry x="580" y="423" width="100" height="420" as="geometry" />
        </mxCell>
        <mxCell id="CorzBwOK-foP67jDU05y-23" value="" style="html=1;points=[];perimeter=orthogonalPerimeter;outlineConnect=0;targetShapes=umlLifeline;portConstraint=eastwest;newEdgeStyle={&quot;edgeStyle&quot;:&quot;elbowEdgeStyle&quot;,&quot;elbow&quot;:&quot;vertical&quot;,&quot;curved&quot;:0,&quot;rounded&quot;:0};" vertex="1" parent="CorzBwOK-foP67jDU05y-22">
          <mxGeometry x="45" y="80" width="10" height="340" as="geometry" />
        </mxCell>
        <mxCell id="CorzBwOK-foP67jDU05y-24" value="Menyusun Laporan" style="html=1;verticalAlign=bottom;endArrow=block;edgeStyle=elbowEdgeStyle;elbow=vertical;curved=0;rounded=0;" edge="1" parent="1">
          <mxGeometry x="0.5152" relative="1" as="geometry">
            <mxPoint x="290" y="700" as="sourcePoint" />
            <Array as="points">
              <mxPoint x="374" y="700" />
            </Array>
            <mxPoint x="620" y="700" as="targetPoint" />
            <mxPoint as="offset" />
          </mxGeometry>
        </mxCell>
        <mxCell id="CorzBwOK-foP67jDU05y-27" value="Menyimpan laporan masjid" style="html=1;verticalAlign=bottom;endArrow=open;dashed=1;endSize=8;edgeStyle=elbowEdgeStyle;elbow=horizontal;curved=0;rounded=0;" edge="1" parent="1">
          <mxGeometry relative="1" as="geometry">
            <mxPoint x="466" y="745" as="targetPoint" />
            <Array as="points">
              <mxPoint x="551" y="745" />
            </Array>
            <mxPoint x="626" y="745" as="sourcePoint" />
          </mxGeometry>
        </mxCell>
        <mxCell id="CorzBwOK-foP67jDU05y-41" value="Admin" style="shape=umlLifeline;perimeter=lifelinePerimeter;whiteSpace=wrap;html=1;container=0;dropTarget=0;collapsible=0;recursiveResize=0;outlineConnect=0;portConstraint=eastwest;newEdgeStyle={&quot;edgeStyle&quot;:&quot;elbowEdgeStyle&quot;,&quot;elbow&quot;:&quot;vertical&quot;,&quot;curved&quot;:0,&quot;rounded&quot;:0};" vertex="1" parent="1">
          <mxGeometry x="872" y="50" width="100" height="390" as="geometry" />
        </mxCell>
        <mxCell id="CorzBwOK-foP67jDU05y-42" value="" style="html=1;points=[];perimeter=orthogonalPerimeter;outlineConnect=0;targetShapes=umlLifeline;portConstraint=eastwest;newEdgeStyle={&quot;edgeStyle&quot;:&quot;elbowEdgeStyle&quot;,&quot;elbow&quot;:&quot;vertical&quot;,&quot;curved&quot;:0,&quot;rounded&quot;:0};" vertex="1" parent="CorzBwOK-foP67jDU05y-41">
          <mxGeometry x="45" y="70" width="10" height="280" as="geometry" />
        </mxCell>
        <mxCell id="CorzBwOK-foP67jDU05y-43" value="sistem" style="shape=umlLifeline;perimeter=lifelinePerimeter;whiteSpace=wrap;html=1;container=0;dropTarget=0;collapsible=0;recursiveResize=0;outlineConnect=0;portConstraint=eastwest;newEdgeStyle={&quot;edgeStyle&quot;:&quot;elbowEdgeStyle&quot;,&quot;elbow&quot;:&quot;vertical&quot;,&quot;curved&quot;:0,&quot;rounded&quot;:0};" vertex="1" parent="1">
          <mxGeometry x="1052" y="50" width="100" height="390" as="geometry" />
        </mxCell>
        <mxCell id="CorzBwOK-foP67jDU05y-44" value="" style="html=1;points=[];perimeter=orthogonalPerimeter;outlineConnect=0;targetShapes=umlLifeline;portConstraint=eastwest;newEdgeStyle={&quot;edgeStyle&quot;:&quot;elbowEdgeStyle&quot;,&quot;elbow&quot;:&quot;vertical&quot;,&quot;curved&quot;:0,&quot;rounded&quot;:0};" vertex="1" parent="CorzBwOK-foP67jDU05y-43">
          <mxGeometry x="45" y="80" width="10" height="250" as="geometry" />
        </mxCell>
        <mxCell id="CorzBwOK-foP67jDU05y-45" value="Memulai Proses" style="html=1;verticalAlign=bottom;endArrow=block;edgeStyle=elbowEdgeStyle;elbow=vertical;curved=0;rounded=0;" edge="1" parent="1" source="CorzBwOK-foP67jDU05y-42" target="CorzBwOK-foP67jDU05y-44">
          <mxGeometry relative="1" as="geometry">
            <mxPoint x="1027" y="140" as="sourcePoint" />
            <Array as="points">
              <mxPoint x="1012" y="130" />
            </Array>
            <mxPoint as="offset" />
          </mxGeometry>
        </mxCell>
        <mxCell id="CorzBwOK-foP67jDU05y-46" value="Meminta informasi jadwal kegiatan&lt;br style=&quot;border-color: var(--border-color);&quot;&gt;dan acara" style="html=1;verticalAlign=bottom;endArrow=open;dashed=1;endSize=8;edgeStyle=elbowEdgeStyle;elbow=vertical;curved=0;rounded=0;" edge="1" parent="1">
          <mxGeometry relative="1" as="geometry">
            <mxPoint x="926" y="197" as="targetPoint" />
            <Array as="points">
              <mxPoint x="1021" y="197" />
            </Array>
            <mxPoint x="1096" y="197" as="sourcePoint" />
          </mxGeometry>
        </mxCell>
        <mxCell id="CorzBwOK-foP67jDU05y-47" value="database" style="shape=umlLifeline;perimeter=lifelinePerimeter;whiteSpace=wrap;html=1;container=0;dropTarget=0;collapsible=0;recursiveResize=0;outlineConnect=0;portConstraint=eastwest;newEdgeStyle={&quot;edgeStyle&quot;:&quot;elbowEdgeStyle&quot;,&quot;elbow&quot;:&quot;vertical&quot;,&quot;curved&quot;:0,&quot;rounded&quot;:0};" vertex="1" parent="1">
          <mxGeometry x="1232" y="50" width="100" height="390" as="geometry" />
        </mxCell>
        <mxCell id="CorzBwOK-foP67jDU05y-48" value="" style="html=1;points=[];perimeter=orthogonalPerimeter;outlineConnect=0;targetShapes=umlLifeline;portConstraint=eastwest;newEdgeStyle={&quot;edgeStyle&quot;:&quot;elbowEdgeStyle&quot;,&quot;elbow&quot;:&quot;vertical&quot;,&quot;curved&quot;:0,&quot;rounded&quot;:0};" vertex="1" parent="CorzBwOK-foP67jDU05y-47">
          <mxGeometry x="45" y="80" width="10" height="270" as="geometry" />
        </mxCell>
        <mxCell id="CorzBwOK-foP67jDU05y-54" value="Mengimput jadwal kegiatan dan&lt;br&gt;acara" style="html=1;verticalAlign=bottom;endArrow=block;edgeStyle=elbowEdgeStyle;elbow=vertical;curved=0;rounded=0;" edge="1" parent="1">
          <mxGeometry relative="1" as="geometry">
            <mxPoint x="928" y="248" as="sourcePoint" />
            <Array as="points">
              <mxPoint x="1013" y="248" />
            </Array>
            <mxPoint as="offset" />
            <mxPoint x="1098" y="248" as="targetPoint" />
          </mxGeometry>
        </mxCell>
        <mxCell id="CorzBwOK-foP67jDU05y-55" value="Mengambil data&amp;nbsp;" style="html=1;verticalAlign=bottom;endArrow=block;edgeStyle=elbowEdgeStyle;elbow=vertical;curved=0;rounded=0;" edge="1" parent="1">
          <mxGeometry relative="1" as="geometry">
            <mxPoint x="1111" y="270" as="sourcePoint" />
            <Array as="points">
              <mxPoint x="1196" y="270" />
            </Array>
            <mxPoint as="offset" />
            <mxPoint x="1276.9999999999998" y="270" as="targetPoint" />
          </mxGeometry>
        </mxCell>
        <mxCell id="CorzBwOK-foP67jDU05y-57" value="Mengirim data" style="html=1;verticalAlign=bottom;endArrow=open;dashed=1;endSize=8;edgeStyle=elbowEdgeStyle;elbow=vertical;curved=0;rounded=0;" edge="1" parent="1">
          <mxGeometry relative="1" as="geometry">
            <mxPoint x="1105" y="304" as="targetPoint" />
            <Array as="points">
              <mxPoint x="1200" y="304" />
            </Array>
            <mxPoint x="1275" y="304" as="sourcePoint" />
          </mxGeometry>
        </mxCell>
        <mxCell id="CorzBwOK-foP67jDU05y-58" value="Menyusun jadwal dan agenda" style="html=1;verticalAlign=bottom;endArrow=block;edgeStyle=elbowEdgeStyle;elbow=vertical;curved=0;rounded=0;" edge="1" parent="1">
          <mxGeometry relative="1" as="geometry">
            <mxPoint x="927" y="326" as="sourcePoint" />
            <Array as="points">
              <mxPoint x="1012" y="326" />
            </Array>
            <mxPoint as="offset" />
            <mxPoint x="1097" y="326" as="targetPoint" />
          </mxGeometry>
        </mxCell>
        <mxCell id="CorzBwOK-foP67jDU05y-59" value="Menu simpan ditampilkan" style="html=1;verticalAlign=bottom;endArrow=open;dashed=1;endSize=8;edgeStyle=elbowEdgeStyle;elbow=vertical;curved=0;rounded=0;" edge="1" parent="1">
          <mxGeometry relative="1" as="geometry">
            <mxPoint x="928" y="362" as="targetPoint" />
            <Array as="points">
              <mxPoint x="1023" y="362" />
            </Array>
            <mxPoint x="1098" y="362" as="sourcePoint" />
          </mxGeometry>
        </mxCell>
        <mxCell id="CorzBwOK-foP67jDU05y-60" value="Menyimpan jadwal dan agenda" style="html=1;verticalAlign=bottom;endArrow=block;edgeStyle=elbowEdgeStyle;elbow=vertical;curved=0;rounded=0;" edge="1" parent="1" target="CorzBwOK-foP67jDU05y-47">
          <mxGeometry relative="1" as="geometry">
            <mxPoint x="928" y="399" as="sourcePoint" />
            <Array as="points">
              <mxPoint x="1013" y="399" />
            </Array>
            <mxPoint as="offset" />
            <mxPoint x="1098" y="399" as="targetPoint" />
          </mxGeometry>
        </mxCell>
        <mxCell id="CorzBwOK-foP67jDU05y-254" value="" style="group" vertex="1" connectable="0" parent="1">
          <mxGeometry x="40" y="40" width="460" height="300" as="geometry" />
        </mxCell>
        <mxCell id="aM9ryv3xv72pqoxQDRHE-1" value="Admin" style="shape=umlLifeline;perimeter=lifelinePerimeter;whiteSpace=wrap;html=1;container=0;dropTarget=0;collapsible=0;recursiveResize=0;outlineConnect=0;portConstraint=eastwest;newEdgeStyle={&quot;edgeStyle&quot;:&quot;elbowEdgeStyle&quot;,&quot;elbow&quot;:&quot;vertical&quot;,&quot;curved&quot;:0,&quot;rounded&quot;:0};" parent="CorzBwOK-foP67jDU05y-254" vertex="1">
          <mxGeometry width="100" height="300" as="geometry" />
        </mxCell>
        <mxCell id="aM9ryv3xv72pqoxQDRHE-2" value="" style="html=1;points=[];perimeter=orthogonalPerimeter;outlineConnect=0;targetShapes=umlLifeline;portConstraint=eastwest;newEdgeStyle={&quot;edgeStyle&quot;:&quot;elbowEdgeStyle&quot;,&quot;elbow&quot;:&quot;vertical&quot;,&quot;curved&quot;:0,&quot;rounded&quot;:0};" parent="aM9ryv3xv72pqoxQDRHE-1" vertex="1">
          <mxGeometry x="45" y="70" width="10" height="210" as="geometry" />
        </mxCell>
        <mxCell id="aM9ryv3xv72pqoxQDRHE-5" value="sistem" style="shape=umlLifeline;perimeter=lifelinePerimeter;whiteSpace=wrap;html=1;container=0;dropTarget=0;collapsible=0;recursiveResize=0;outlineConnect=0;portConstraint=eastwest;newEdgeStyle={&quot;edgeStyle&quot;:&quot;elbowEdgeStyle&quot;,&quot;elbow&quot;:&quot;vertical&quot;,&quot;curved&quot;:0,&quot;rounded&quot;:0};" parent="CorzBwOK-foP67jDU05y-254" vertex="1">
          <mxGeometry x="180" width="100" height="300" as="geometry" />
        </mxCell>
        <mxCell id="aM9ryv3xv72pqoxQDRHE-6" value="" style="html=1;points=[];perimeter=orthogonalPerimeter;outlineConnect=0;targetShapes=umlLifeline;portConstraint=eastwest;newEdgeStyle={&quot;edgeStyle&quot;:&quot;elbowEdgeStyle&quot;,&quot;elbow&quot;:&quot;vertical&quot;,&quot;curved&quot;:0,&quot;rounded&quot;:0};" parent="aM9ryv3xv72pqoxQDRHE-5" vertex="1">
          <mxGeometry x="45" y="80" width="10" height="200" as="geometry" />
        </mxCell>
        <mxCell id="aM9ryv3xv72pqoxQDRHE-7" value="memilih form daftat pengguna" style="html=1;verticalAlign=bottom;endArrow=block;edgeStyle=elbowEdgeStyle;elbow=vertical;curved=0;rounded=0;" parent="CorzBwOK-foP67jDU05y-254" source="aM9ryv3xv72pqoxQDRHE-2" target="aM9ryv3xv72pqoxQDRHE-6" edge="1">
          <mxGeometry relative="1" as="geometry">
            <mxPoint x="155" y="90" as="sourcePoint" />
            <Array as="points">
              <mxPoint x="140" y="80" />
            </Array>
            <mxPoint as="offset" />
          </mxGeometry>
        </mxCell>
        <mxCell id="aM9ryv3xv72pqoxQDRHE-8" value="tampilan from daftar pengguna" style="html=1;verticalAlign=bottom;endArrow=open;dashed=1;endSize=8;edgeStyle=elbowEdgeStyle;elbow=vertical;curved=0;rounded=0;" parent="CorzBwOK-foP67jDU05y-254" edge="1">
          <mxGeometry relative="1" as="geometry">
            <mxPoint x="55" y="120" as="targetPoint" />
            <Array as="points">
              <mxPoint x="150" y="120" />
            </Array>
            <mxPoint x="225" y="120" as="sourcePoint" />
          </mxGeometry>
        </mxCell>
        <mxCell id="CorzBwOK-foP67jDU05y-1" value="database" style="shape=umlLifeline;perimeter=lifelinePerimeter;whiteSpace=wrap;html=1;container=0;dropTarget=0;collapsible=0;recursiveResize=0;outlineConnect=0;portConstraint=eastwest;newEdgeStyle={&quot;edgeStyle&quot;:&quot;elbowEdgeStyle&quot;,&quot;elbow&quot;:&quot;vertical&quot;,&quot;curved&quot;:0,&quot;rounded&quot;:0};" vertex="1" parent="CorzBwOK-foP67jDU05y-254">
          <mxGeometry x="360" width="100" height="300" as="geometry" />
        </mxCell>
        <mxCell id="CorzBwOK-foP67jDU05y-2" value="" style="html=1;points=[];perimeter=orthogonalPerimeter;outlineConnect=0;targetShapes=umlLifeline;portConstraint=eastwest;newEdgeStyle={&quot;edgeStyle&quot;:&quot;elbowEdgeStyle&quot;,&quot;elbow&quot;:&quot;vertical&quot;,&quot;curved&quot;:0,&quot;rounded&quot;:0};" vertex="1" parent="CorzBwOK-foP67jDU05y-1">
          <mxGeometry x="45" y="80" width="10" height="170" as="geometry" />
        </mxCell>
        <mxCell id="CorzBwOK-foP67jDU05y-3" value="memilih opsi (tambah,edit,hapus)" style="html=1;verticalAlign=bottom;endArrow=block;edgeStyle=elbowEdgeStyle;elbow=vertical;curved=0;rounded=0;" edge="1" parent="CorzBwOK-foP67jDU05y-254">
          <mxGeometry relative="1" as="geometry">
            <mxPoint x="55" y="170" as="sourcePoint" />
            <Array as="points">
              <mxPoint x="140" y="170" />
            </Array>
            <mxPoint x="225" y="170" as="targetPoint" />
            <mxPoint as="offset" />
          </mxGeometry>
        </mxCell>
        <mxCell id="CorzBwOK-foP67jDU05y-5" value="mengirim data pengguna" style="html=1;verticalAlign=bottom;endArrow=block;edgeStyle=elbowEdgeStyle;elbow=vertical;curved=0;rounded=0;" edge="1" parent="CorzBwOK-foP67jDU05y-254">
          <mxGeometry relative="1" as="geometry">
            <mxPoint x="235" y="200" as="sourcePoint" />
            <Array as="points">
              <mxPoint x="320" y="200" />
            </Array>
            <mxPoint x="405" y="200" as="targetPoint" />
            <mxPoint as="offset" />
          </mxGeometry>
        </mxCell>
        <mxCell id="CorzBwOK-foP67jDU05y-6" value="menerima data pengguna" style="html=1;verticalAlign=bottom;endArrow=open;dashed=1;endSize=8;edgeStyle=elbowEdgeStyle;elbow=vertical;curved=0;rounded=0;" edge="1" parent="CorzBwOK-foP67jDU05y-254">
          <mxGeometry relative="1" as="geometry">
            <mxPoint x="240" y="240" as="targetPoint" />
            <Array as="points">
              <mxPoint x="325" y="240" />
            </Array>
            <mxPoint x="400" y="240" as="sourcePoint" />
          </mxGeometry>
        </mxCell>
        <mxCell id="CorzBwOK-foP67jDU05y-7" value="tampilan daftar data pengguna" style="html=1;verticalAlign=bottom;endArrow=open;dashed=1;endSize=8;edgeStyle=elbowEdgeStyle;elbow=vertical;curved=0;rounded=0;" edge="1" parent="CorzBwOK-foP67jDU05y-254">
          <mxGeometry relative="1" as="geometry">
            <mxPoint x="60" y="261" as="targetPoint" />
            <Array as="points">
              <mxPoint x="145" y="261" />
            </Array>
            <mxPoint x="220" y="261" as="sourcePoint" />
          </mxGeometry>
        </mxCell>
        <mxCell id="CorzBwOK-foP67jDU05y-29" value="Admin" style="shape=umlLifeline;perimeter=lifelinePerimeter;whiteSpace=wrap;html=1;container=0;dropTarget=0;collapsible=0;recursiveResize=0;outlineConnect=0;portConstraint=eastwest;newEdgeStyle={&quot;edgeStyle&quot;:&quot;elbowEdgeStyle&quot;,&quot;elbow&quot;:&quot;vertical&quot;,&quot;curved&quot;:0,&quot;rounded&quot;:0};" vertex="1" parent="CorzBwOK-foP67jDU05y-254">
          <mxGeometry width="100" height="300" as="geometry" />
        </mxCell>
        <mxCell id="CorzBwOK-foP67jDU05y-30" value="" style="html=1;points=[];perimeter=orthogonalPerimeter;outlineConnect=0;targetShapes=umlLifeline;portConstraint=eastwest;newEdgeStyle={&quot;edgeStyle&quot;:&quot;elbowEdgeStyle&quot;,&quot;elbow&quot;:&quot;vertical&quot;,&quot;curved&quot;:0,&quot;rounded&quot;:0};" vertex="1" parent="CorzBwOK-foP67jDU05y-29">
          <mxGeometry x="45" y="70" width="10" height="210" as="geometry" />
        </mxCell>
        <mxCell id="CorzBwOK-foP67jDU05y-31" value="sistem" style="shape=umlLifeline;perimeter=lifelinePerimeter;whiteSpace=wrap;html=1;container=0;dropTarget=0;collapsible=0;recursiveResize=0;outlineConnect=0;portConstraint=eastwest;newEdgeStyle={&quot;edgeStyle&quot;:&quot;elbowEdgeStyle&quot;,&quot;elbow&quot;:&quot;vertical&quot;,&quot;curved&quot;:0,&quot;rounded&quot;:0};" vertex="1" parent="CorzBwOK-foP67jDU05y-254">
          <mxGeometry x="180" width="100" height="300" as="geometry" />
        </mxCell>
        <mxCell id="CorzBwOK-foP67jDU05y-32" value="" style="html=1;points=[];perimeter=orthogonalPerimeter;outlineConnect=0;targetShapes=umlLifeline;portConstraint=eastwest;newEdgeStyle={&quot;edgeStyle&quot;:&quot;elbowEdgeStyle&quot;,&quot;elbow&quot;:&quot;vertical&quot;,&quot;curved&quot;:0,&quot;rounded&quot;:0};" vertex="1" parent="CorzBwOK-foP67jDU05y-31">
          <mxGeometry x="45" y="80" width="10" height="200" as="geometry" />
        </mxCell>
        <mxCell id="CorzBwOK-foP67jDU05y-33" value="memilih form daftat pengguna" style="html=1;verticalAlign=bottom;endArrow=block;edgeStyle=elbowEdgeStyle;elbow=vertical;curved=0;rounded=0;" edge="1" parent="CorzBwOK-foP67jDU05y-254" source="CorzBwOK-foP67jDU05y-30" target="CorzBwOK-foP67jDU05y-32">
          <mxGeometry relative="1" as="geometry">
            <mxPoint x="155" y="90" as="sourcePoint" />
            <Array as="points">
              <mxPoint x="140" y="80" />
            </Array>
            <mxPoint as="offset" />
          </mxGeometry>
        </mxCell>
        <mxCell id="CorzBwOK-foP67jDU05y-34" value="tampilan from daftar pengguna" style="html=1;verticalAlign=bottom;endArrow=open;dashed=1;endSize=8;edgeStyle=elbowEdgeStyle;elbow=vertical;curved=0;rounded=0;" edge="1" parent="CorzBwOK-foP67jDU05y-254">
          <mxGeometry relative="1" as="geometry">
            <mxPoint x="55" y="120" as="targetPoint" />
            <Array as="points">
              <mxPoint x="150" y="120" />
            </Array>
            <mxPoint x="225" y="120" as="sourcePoint" />
          </mxGeometry>
        </mxCell>
        <mxCell id="CorzBwOK-foP67jDU05y-35" value="database" style="shape=umlLifeline;perimeter=lifelinePerimeter;whiteSpace=wrap;html=1;container=0;dropTarget=0;collapsible=0;recursiveResize=0;outlineConnect=0;portConstraint=eastwest;newEdgeStyle={&quot;edgeStyle&quot;:&quot;elbowEdgeStyle&quot;,&quot;elbow&quot;:&quot;vertical&quot;,&quot;curved&quot;:0,&quot;rounded&quot;:0};" vertex="1" parent="CorzBwOK-foP67jDU05y-254">
          <mxGeometry x="360" width="100" height="300" as="geometry" />
        </mxCell>
        <mxCell id="CorzBwOK-foP67jDU05y-36" value="" style="html=1;points=[];perimeter=orthogonalPerimeter;outlineConnect=0;targetShapes=umlLifeline;portConstraint=eastwest;newEdgeStyle={&quot;edgeStyle&quot;:&quot;elbowEdgeStyle&quot;,&quot;elbow&quot;:&quot;vertical&quot;,&quot;curved&quot;:0,&quot;rounded&quot;:0};" vertex="1" parent="CorzBwOK-foP67jDU05y-35">
          <mxGeometry x="45" y="80" width="10" height="170" as="geometry" />
        </mxCell>
        <mxCell id="CorzBwOK-foP67jDU05y-37" value="memilih opsi (tambah,edit,hapus)" style="html=1;verticalAlign=bottom;endArrow=block;edgeStyle=elbowEdgeStyle;elbow=vertical;curved=0;rounded=0;" edge="1" parent="CorzBwOK-foP67jDU05y-254">
          <mxGeometry relative="1" as="geometry">
            <mxPoint x="55" y="170" as="sourcePoint" />
            <Array as="points">
              <mxPoint x="140" y="170" />
            </Array>
            <mxPoint x="225" y="170" as="targetPoint" />
            <mxPoint as="offset" />
          </mxGeometry>
        </mxCell>
        <mxCell id="CorzBwOK-foP67jDU05y-38" value="mengirim data pengguna" style="html=1;verticalAlign=bottom;endArrow=block;edgeStyle=elbowEdgeStyle;elbow=vertical;curved=0;rounded=0;" edge="1" parent="CorzBwOK-foP67jDU05y-254">
          <mxGeometry relative="1" as="geometry">
            <mxPoint x="235" y="200" as="sourcePoint" />
            <Array as="points">
              <mxPoint x="320" y="200" />
            </Array>
            <mxPoint x="405" y="200" as="targetPoint" />
            <mxPoint as="offset" />
          </mxGeometry>
        </mxCell>
        <mxCell id="CorzBwOK-foP67jDU05y-39" value="menerima data pengguna" style="html=1;verticalAlign=bottom;endArrow=open;dashed=1;endSize=8;edgeStyle=elbowEdgeStyle;elbow=vertical;curved=0;rounded=0;" edge="1" parent="CorzBwOK-foP67jDU05y-254">
          <mxGeometry relative="1" as="geometry">
            <mxPoint x="240" y="240" as="targetPoint" />
            <Array as="points">
              <mxPoint x="325" y="240" />
            </Array>
            <mxPoint x="400" y="240" as="sourcePoint" />
          </mxGeometry>
        </mxCell>
        <mxCell id="CorzBwOK-foP67jDU05y-40" value="tampilan daftar data pengguna" style="html=1;verticalAlign=bottom;endArrow=open;dashed=1;endSize=8;edgeStyle=elbowEdgeStyle;elbow=vertical;curved=0;rounded=0;" edge="1" parent="CorzBwOK-foP67jDU05y-254">
          <mxGeometry relative="1" as="geometry">
            <mxPoint x="60" y="261" as="targetPoint" />
            <Array as="points">
              <mxPoint x="145" y="261" />
            </Array>
            <mxPoint x="220" y="261" as="sourcePoint" />
          </mxGeometry>
        </mxCell>
        <mxCell id="CorzBwOK-foP67jDU05y-62" value="Admin" style="shape=umlLifeline;perimeter=lifelinePerimeter;whiteSpace=wrap;html=1;container=0;dropTarget=0;collapsible=0;recursiveResize=0;outlineConnect=0;portConstraint=eastwest;newEdgeStyle={&quot;edgeStyle&quot;:&quot;elbowEdgeStyle&quot;,&quot;elbow&quot;:&quot;vertical&quot;,&quot;curved&quot;:0,&quot;rounded&quot;:0};" vertex="1" parent="CorzBwOK-foP67jDU05y-254">
          <mxGeometry width="100" height="300" as="geometry" />
        </mxCell>
        <mxCell id="CorzBwOK-foP67jDU05y-63" value="" style="html=1;points=[];perimeter=orthogonalPerimeter;outlineConnect=0;targetShapes=umlLifeline;portConstraint=eastwest;newEdgeStyle={&quot;edgeStyle&quot;:&quot;elbowEdgeStyle&quot;,&quot;elbow&quot;:&quot;vertical&quot;,&quot;curved&quot;:0,&quot;rounded&quot;:0};" vertex="1" parent="CorzBwOK-foP67jDU05y-62">
          <mxGeometry x="45" y="70" width="10" height="210" as="geometry" />
        </mxCell>
        <mxCell id="CorzBwOK-foP67jDU05y-64" value="sistem" style="shape=umlLifeline;perimeter=lifelinePerimeter;whiteSpace=wrap;html=1;container=0;dropTarget=0;collapsible=0;recursiveResize=0;outlineConnect=0;portConstraint=eastwest;newEdgeStyle={&quot;edgeStyle&quot;:&quot;elbowEdgeStyle&quot;,&quot;elbow&quot;:&quot;vertical&quot;,&quot;curved&quot;:0,&quot;rounded&quot;:0};" vertex="1" parent="CorzBwOK-foP67jDU05y-254">
          <mxGeometry x="180" width="100" height="300" as="geometry" />
        </mxCell>
        <mxCell id="CorzBwOK-foP67jDU05y-65" value="" style="html=1;points=[];perimeter=orthogonalPerimeter;outlineConnect=0;targetShapes=umlLifeline;portConstraint=eastwest;newEdgeStyle={&quot;edgeStyle&quot;:&quot;elbowEdgeStyle&quot;,&quot;elbow&quot;:&quot;vertical&quot;,&quot;curved&quot;:0,&quot;rounded&quot;:0};" vertex="1" parent="CorzBwOK-foP67jDU05y-64">
          <mxGeometry x="45" y="80" width="10" height="200" as="geometry" />
        </mxCell>
        <mxCell id="CorzBwOK-foP67jDU05y-66" value="memilih form daftat pengguna" style="html=1;verticalAlign=bottom;endArrow=block;edgeStyle=elbowEdgeStyle;elbow=vertical;curved=0;rounded=0;" edge="1" parent="CorzBwOK-foP67jDU05y-254" source="CorzBwOK-foP67jDU05y-63" target="CorzBwOK-foP67jDU05y-65">
          <mxGeometry relative="1" as="geometry">
            <mxPoint x="155" y="90" as="sourcePoint" />
            <Array as="points">
              <mxPoint x="140" y="80" />
            </Array>
            <mxPoint as="offset" />
          </mxGeometry>
        </mxCell>
        <mxCell id="CorzBwOK-foP67jDU05y-67" value="tampilan from daftar pengguna" style="html=1;verticalAlign=bottom;endArrow=open;dashed=1;endSize=8;edgeStyle=elbowEdgeStyle;elbow=vertical;curved=0;rounded=0;" edge="1" parent="CorzBwOK-foP67jDU05y-254">
          <mxGeometry relative="1" as="geometry">
            <mxPoint x="55" y="120" as="targetPoint" />
            <Array as="points">
              <mxPoint x="150" y="120" />
            </Array>
            <mxPoint x="225" y="120" as="sourcePoint" />
          </mxGeometry>
        </mxCell>
        <mxCell id="CorzBwOK-foP67jDU05y-68" value="database" style="shape=umlLifeline;perimeter=lifelinePerimeter;whiteSpace=wrap;html=1;container=0;dropTarget=0;collapsible=0;recursiveResize=0;outlineConnect=0;portConstraint=eastwest;newEdgeStyle={&quot;edgeStyle&quot;:&quot;elbowEdgeStyle&quot;,&quot;elbow&quot;:&quot;vertical&quot;,&quot;curved&quot;:0,&quot;rounded&quot;:0};" vertex="1" parent="CorzBwOK-foP67jDU05y-254">
          <mxGeometry x="360" width="100" height="300" as="geometry" />
        </mxCell>
        <mxCell id="CorzBwOK-foP67jDU05y-69" value="" style="html=1;points=[];perimeter=orthogonalPerimeter;outlineConnect=0;targetShapes=umlLifeline;portConstraint=eastwest;newEdgeStyle={&quot;edgeStyle&quot;:&quot;elbowEdgeStyle&quot;,&quot;elbow&quot;:&quot;vertical&quot;,&quot;curved&quot;:0,&quot;rounded&quot;:0};" vertex="1" parent="CorzBwOK-foP67jDU05y-68">
          <mxGeometry x="45" y="80" width="10" height="170" as="geometry" />
        </mxCell>
        <mxCell id="CorzBwOK-foP67jDU05y-70" value="memilih opsi (tambah,edit,hapus)" style="html=1;verticalAlign=bottom;endArrow=block;edgeStyle=elbowEdgeStyle;elbow=vertical;curved=0;rounded=0;" edge="1" parent="CorzBwOK-foP67jDU05y-254">
          <mxGeometry relative="1" as="geometry">
            <mxPoint x="55" y="170" as="sourcePoint" />
            <Array as="points">
              <mxPoint x="140" y="170" />
            </Array>
            <mxPoint x="225" y="170" as="targetPoint" />
            <mxPoint as="offset" />
          </mxGeometry>
        </mxCell>
        <mxCell id="CorzBwOK-foP67jDU05y-71" value="mengirim data pengguna" style="html=1;verticalAlign=bottom;endArrow=block;edgeStyle=elbowEdgeStyle;elbow=vertical;curved=0;rounded=0;" edge="1" parent="CorzBwOK-foP67jDU05y-254">
          <mxGeometry relative="1" as="geometry">
            <mxPoint x="235" y="200" as="sourcePoint" />
            <Array as="points">
              <mxPoint x="320" y="200" />
            </Array>
            <mxPoint x="405" y="200" as="targetPoint" />
            <mxPoint as="offset" />
          </mxGeometry>
        </mxCell>
        <mxCell id="CorzBwOK-foP67jDU05y-72" value="menerima data pengguna" style="html=1;verticalAlign=bottom;endArrow=open;dashed=1;endSize=8;edgeStyle=elbowEdgeStyle;elbow=vertical;curved=0;rounded=0;" edge="1" parent="CorzBwOK-foP67jDU05y-254">
          <mxGeometry relative="1" as="geometry">
            <mxPoint x="240" y="240" as="targetPoint" />
            <Array as="points">
              <mxPoint x="325" y="240" />
            </Array>
            <mxPoint x="400" y="240" as="sourcePoint" />
          </mxGeometry>
        </mxCell>
        <mxCell id="CorzBwOK-foP67jDU05y-73" value="tampilan daftar data pengguna" style="html=1;verticalAlign=bottom;endArrow=open;dashed=1;endSize=8;edgeStyle=elbowEdgeStyle;elbow=vertical;curved=0;rounded=0;" edge="1" parent="CorzBwOK-foP67jDU05y-254">
          <mxGeometry relative="1" as="geometry">
            <mxPoint x="60" y="261" as="targetPoint" />
            <Array as="points">
              <mxPoint x="145" y="261" />
            </Array>
            <mxPoint x="220" y="261" as="sourcePoint" />
          </mxGeometry>
        </mxCell>
        <mxCell id="CorzBwOK-foP67jDU05y-74" value="Admin" style="shape=umlLifeline;perimeter=lifelinePerimeter;whiteSpace=wrap;html=1;container=0;dropTarget=0;collapsible=0;recursiveResize=0;outlineConnect=0;portConstraint=eastwest;newEdgeStyle={&quot;edgeStyle&quot;:&quot;elbowEdgeStyle&quot;,&quot;elbow&quot;:&quot;vertical&quot;,&quot;curved&quot;:0,&quot;rounded&quot;:0};" vertex="1" parent="CorzBwOK-foP67jDU05y-254">
          <mxGeometry width="100" height="300" as="geometry" />
        </mxCell>
        <mxCell id="CorzBwOK-foP67jDU05y-75" value="" style="html=1;points=[];perimeter=orthogonalPerimeter;outlineConnect=0;targetShapes=umlLifeline;portConstraint=eastwest;newEdgeStyle={&quot;edgeStyle&quot;:&quot;elbowEdgeStyle&quot;,&quot;elbow&quot;:&quot;vertical&quot;,&quot;curved&quot;:0,&quot;rounded&quot;:0};" vertex="1" parent="CorzBwOK-foP67jDU05y-74">
          <mxGeometry x="45" y="70" width="10" height="210" as="geometry" />
        </mxCell>
        <mxCell id="CorzBwOK-foP67jDU05y-76" value="sistem" style="shape=umlLifeline;perimeter=lifelinePerimeter;whiteSpace=wrap;html=1;container=0;dropTarget=0;collapsible=0;recursiveResize=0;outlineConnect=0;portConstraint=eastwest;newEdgeStyle={&quot;edgeStyle&quot;:&quot;elbowEdgeStyle&quot;,&quot;elbow&quot;:&quot;vertical&quot;,&quot;curved&quot;:0,&quot;rounded&quot;:0};" vertex="1" parent="CorzBwOK-foP67jDU05y-254">
          <mxGeometry x="180" width="100" height="300" as="geometry" />
        </mxCell>
        <mxCell id="CorzBwOK-foP67jDU05y-77" value="" style="html=1;points=[];perimeter=orthogonalPerimeter;outlineConnect=0;targetShapes=umlLifeline;portConstraint=eastwest;newEdgeStyle={&quot;edgeStyle&quot;:&quot;elbowEdgeStyle&quot;,&quot;elbow&quot;:&quot;vertical&quot;,&quot;curved&quot;:0,&quot;rounded&quot;:0};" vertex="1" parent="CorzBwOK-foP67jDU05y-76">
          <mxGeometry x="45" y="80" width="10" height="200" as="geometry" />
        </mxCell>
        <mxCell id="CorzBwOK-foP67jDU05y-78" value="memilih form daftat pengguna" style="html=1;verticalAlign=bottom;endArrow=block;edgeStyle=elbowEdgeStyle;elbow=vertical;curved=0;rounded=0;" edge="1" parent="CorzBwOK-foP67jDU05y-254" source="CorzBwOK-foP67jDU05y-75" target="CorzBwOK-foP67jDU05y-77">
          <mxGeometry relative="1" as="geometry">
            <mxPoint x="155" y="90" as="sourcePoint" />
            <Array as="points">
              <mxPoint x="140" y="80" />
            </Array>
            <mxPoint as="offset" />
          </mxGeometry>
        </mxCell>
        <mxCell id="CorzBwOK-foP67jDU05y-79" value="tampilan from daftar pengguna" style="html=1;verticalAlign=bottom;endArrow=open;dashed=1;endSize=8;edgeStyle=elbowEdgeStyle;elbow=vertical;curved=0;rounded=0;" edge="1" parent="CorzBwOK-foP67jDU05y-254">
          <mxGeometry relative="1" as="geometry">
            <mxPoint x="55" y="120" as="targetPoint" />
            <Array as="points">
              <mxPoint x="150" y="120" />
            </Array>
            <mxPoint x="225" y="120" as="sourcePoint" />
          </mxGeometry>
        </mxCell>
        <mxCell id="CorzBwOK-foP67jDU05y-80" value="database" style="shape=umlLifeline;perimeter=lifelinePerimeter;whiteSpace=wrap;html=1;container=0;dropTarget=0;collapsible=0;recursiveResize=0;outlineConnect=0;portConstraint=eastwest;newEdgeStyle={&quot;edgeStyle&quot;:&quot;elbowEdgeStyle&quot;,&quot;elbow&quot;:&quot;vertical&quot;,&quot;curved&quot;:0,&quot;rounded&quot;:0};" vertex="1" parent="CorzBwOK-foP67jDU05y-254">
          <mxGeometry x="360" width="100" height="300" as="geometry" />
        </mxCell>
        <mxCell id="CorzBwOK-foP67jDU05y-81" value="" style="html=1;points=[];perimeter=orthogonalPerimeter;outlineConnect=0;targetShapes=umlLifeline;portConstraint=eastwest;newEdgeStyle={&quot;edgeStyle&quot;:&quot;elbowEdgeStyle&quot;,&quot;elbow&quot;:&quot;vertical&quot;,&quot;curved&quot;:0,&quot;rounded&quot;:0};" vertex="1" parent="CorzBwOK-foP67jDU05y-80">
          <mxGeometry x="45" y="80" width="10" height="170" as="geometry" />
        </mxCell>
        <mxCell id="CorzBwOK-foP67jDU05y-82" value="memilih opsi (tambah,edit,hapus)" style="html=1;verticalAlign=bottom;endArrow=block;edgeStyle=elbowEdgeStyle;elbow=vertical;curved=0;rounded=0;" edge="1" parent="CorzBwOK-foP67jDU05y-254">
          <mxGeometry relative="1" as="geometry">
            <mxPoint x="55" y="170" as="sourcePoint" />
            <Array as="points">
              <mxPoint x="140" y="170" />
            </Array>
            <mxPoint x="225" y="170" as="targetPoint" />
            <mxPoint as="offset" />
          </mxGeometry>
        </mxCell>
        <mxCell id="CorzBwOK-foP67jDU05y-83" value="mengirim data pengguna" style="html=1;verticalAlign=bottom;endArrow=block;edgeStyle=elbowEdgeStyle;elbow=vertical;curved=0;rounded=0;" edge="1" parent="CorzBwOK-foP67jDU05y-254">
          <mxGeometry relative="1" as="geometry">
            <mxPoint x="235" y="200" as="sourcePoint" />
            <Array as="points">
              <mxPoint x="320" y="200" />
            </Array>
            <mxPoint x="405" y="200" as="targetPoint" />
            <mxPoint as="offset" />
          </mxGeometry>
        </mxCell>
        <mxCell id="CorzBwOK-foP67jDU05y-84" value="menerima data pengguna" style="html=1;verticalAlign=bottom;endArrow=open;dashed=1;endSize=8;edgeStyle=elbowEdgeStyle;elbow=vertical;curved=0;rounded=0;" edge="1" parent="CorzBwOK-foP67jDU05y-254">
          <mxGeometry relative="1" as="geometry">
            <mxPoint x="240" y="240" as="targetPoint" />
            <Array as="points">
              <mxPoint x="325" y="240" />
            </Array>
            <mxPoint x="400" y="240" as="sourcePoint" />
          </mxGeometry>
        </mxCell>
        <mxCell id="CorzBwOK-foP67jDU05y-85" value="tampilan daftar data pengguna" style="html=1;verticalAlign=bottom;endArrow=open;dashed=1;endSize=8;edgeStyle=elbowEdgeStyle;elbow=vertical;curved=0;rounded=0;" edge="1" parent="CorzBwOK-foP67jDU05y-254">
          <mxGeometry relative="1" as="geometry">
            <mxPoint x="60" y="261" as="targetPoint" />
            <Array as="points">
              <mxPoint x="145" y="261" />
            </Array>
            <mxPoint x="220" y="261" as="sourcePoint" />
          </mxGeometry>
        </mxCell>
        <mxCell id="CorzBwOK-foP67jDU05y-256" value="Admin" style="shape=umlLifeline;perimeter=lifelinePerimeter;whiteSpace=wrap;html=1;container=0;dropTarget=0;collapsible=0;recursiveResize=0;outlineConnect=0;portConstraint=eastwest;newEdgeStyle={&quot;edgeStyle&quot;:&quot;elbowEdgeStyle&quot;,&quot;elbow&quot;:&quot;vertical&quot;,&quot;curved&quot;:0,&quot;rounded&quot;:0};" vertex="1" parent="1">
          <mxGeometry x="60" y="950" width="100" height="300" as="geometry" />
        </mxCell>
        <mxCell id="CorzBwOK-foP67jDU05y-257" value="" style="html=1;points=[];perimeter=orthogonalPerimeter;outlineConnect=0;targetShapes=umlLifeline;portConstraint=eastwest;newEdgeStyle={&quot;edgeStyle&quot;:&quot;elbowEdgeStyle&quot;,&quot;elbow&quot;:&quot;vertical&quot;,&quot;curved&quot;:0,&quot;rounded&quot;:0};" vertex="1" parent="CorzBwOK-foP67jDU05y-256">
          <mxGeometry x="45" y="70" width="10" height="210" as="geometry" />
        </mxCell>
        <mxCell id="CorzBwOK-foP67jDU05y-258" value="sistem" style="shape=umlLifeline;perimeter=lifelinePerimeter;whiteSpace=wrap;html=1;container=0;dropTarget=0;collapsible=0;recursiveResize=0;outlineConnect=0;portConstraint=eastwest;newEdgeStyle={&quot;edgeStyle&quot;:&quot;elbowEdgeStyle&quot;,&quot;elbow&quot;:&quot;vertical&quot;,&quot;curved&quot;:0,&quot;rounded&quot;:0};" vertex="1" parent="1">
          <mxGeometry x="240" y="950" width="100" height="300" as="geometry" />
        </mxCell>
        <mxCell id="CorzBwOK-foP67jDU05y-259" value="" style="html=1;points=[];perimeter=orthogonalPerimeter;outlineConnect=0;targetShapes=umlLifeline;portConstraint=eastwest;newEdgeStyle={&quot;edgeStyle&quot;:&quot;elbowEdgeStyle&quot;,&quot;elbow&quot;:&quot;vertical&quot;,&quot;curved&quot;:0,&quot;rounded&quot;:0};" vertex="1" parent="CorzBwOK-foP67jDU05y-258">
          <mxGeometry x="45" y="80" width="10" height="200" as="geometry" />
        </mxCell>
        <mxCell id="CorzBwOK-foP67jDU05y-262" value="database" style="shape=umlLifeline;perimeter=lifelinePerimeter;whiteSpace=wrap;html=1;container=0;dropTarget=0;collapsible=0;recursiveResize=0;outlineConnect=0;portConstraint=eastwest;newEdgeStyle={&quot;edgeStyle&quot;:&quot;elbowEdgeStyle&quot;,&quot;elbow&quot;:&quot;vertical&quot;,&quot;curved&quot;:0,&quot;rounded&quot;:0};" vertex="1" parent="1">
          <mxGeometry x="420" y="950" width="100" height="300" as="geometry" />
        </mxCell>
        <mxCell id="CorzBwOK-foP67jDU05y-263" value="" style="html=1;points=[];perimeter=orthogonalPerimeter;outlineConnect=0;targetShapes=umlLifeline;portConstraint=eastwest;newEdgeStyle={&quot;edgeStyle&quot;:&quot;elbowEdgeStyle&quot;,&quot;elbow&quot;:&quot;vertical&quot;,&quot;curved&quot;:0,&quot;rounded&quot;:0};" vertex="1" parent="CorzBwOK-foP67jDU05y-262">
          <mxGeometry x="45" y="80" width="10" height="170" as="geometry" />
        </mxCell>
        <mxCell id="CorzBwOK-foP67jDU05y-265" value="Mengambil foto kegiatan" style="html=1;verticalAlign=bottom;endArrow=block;edgeStyle=elbowEdgeStyle;elbow=vertical;curved=0;rounded=0;" edge="1" parent="1">
          <mxGeometry relative="1" as="geometry">
            <mxPoint x="295" y="1150" as="sourcePoint" />
            <Array as="points">
              <mxPoint x="380" y="1150" />
            </Array>
            <mxPoint x="465" y="1150" as="targetPoint" />
            <mxPoint as="offset" />
          </mxGeometry>
        </mxCell>
        <mxCell id="CorzBwOK-foP67jDU05y-268" value="Admin" style="shape=umlLifeline;perimeter=lifelinePerimeter;whiteSpace=wrap;html=1;container=0;dropTarget=0;collapsible=0;recursiveResize=0;outlineConnect=0;portConstraint=eastwest;newEdgeStyle={&quot;edgeStyle&quot;:&quot;elbowEdgeStyle&quot;,&quot;elbow&quot;:&quot;vertical&quot;,&quot;curved&quot;:0,&quot;rounded&quot;:0};" vertex="1" parent="1">
          <mxGeometry x="60" y="950" width="100" height="300" as="geometry" />
        </mxCell>
        <mxCell id="CorzBwOK-foP67jDU05y-269" value="" style="html=1;points=[];perimeter=orthogonalPerimeter;outlineConnect=0;targetShapes=umlLifeline;portConstraint=eastwest;newEdgeStyle={&quot;edgeStyle&quot;:&quot;elbowEdgeStyle&quot;,&quot;elbow&quot;:&quot;vertical&quot;,&quot;curved&quot;:0,&quot;rounded&quot;:0};" vertex="1" parent="CorzBwOK-foP67jDU05y-268">
          <mxGeometry x="45" y="70" width="10" height="210" as="geometry" />
        </mxCell>
        <mxCell id="CorzBwOK-foP67jDU05y-270" value="sistem" style="shape=umlLifeline;perimeter=lifelinePerimeter;whiteSpace=wrap;html=1;container=0;dropTarget=0;collapsible=0;recursiveResize=0;outlineConnect=0;portConstraint=eastwest;newEdgeStyle={&quot;edgeStyle&quot;:&quot;elbowEdgeStyle&quot;,&quot;elbow&quot;:&quot;vertical&quot;,&quot;curved&quot;:0,&quot;rounded&quot;:0};" vertex="1" parent="1">
          <mxGeometry x="240" y="950" width="100" height="300" as="geometry" />
        </mxCell>
        <mxCell id="CorzBwOK-foP67jDU05y-271" value="" style="html=1;points=[];perimeter=orthogonalPerimeter;outlineConnect=0;targetShapes=umlLifeline;portConstraint=eastwest;newEdgeStyle={&quot;edgeStyle&quot;:&quot;elbowEdgeStyle&quot;,&quot;elbow&quot;:&quot;vertical&quot;,&quot;curved&quot;:0,&quot;rounded&quot;:0};" vertex="1" parent="CorzBwOK-foP67jDU05y-270">
          <mxGeometry x="45" y="80" width="10" height="200" as="geometry" />
        </mxCell>
        <mxCell id="CorzBwOK-foP67jDU05y-274" value="database" style="shape=umlLifeline;perimeter=lifelinePerimeter;whiteSpace=wrap;html=1;container=0;dropTarget=0;collapsible=0;recursiveResize=0;outlineConnect=0;portConstraint=eastwest;newEdgeStyle={&quot;edgeStyle&quot;:&quot;elbowEdgeStyle&quot;,&quot;elbow&quot;:&quot;vertical&quot;,&quot;curved&quot;:0,&quot;rounded&quot;:0};" vertex="1" parent="1">
          <mxGeometry x="420" y="950" width="100" height="300" as="geometry" />
        </mxCell>
        <mxCell id="CorzBwOK-foP67jDU05y-275" value="" style="html=1;points=[];perimeter=orthogonalPerimeter;outlineConnect=0;targetShapes=umlLifeline;portConstraint=eastwest;newEdgeStyle={&quot;edgeStyle&quot;:&quot;elbowEdgeStyle&quot;,&quot;elbow&quot;:&quot;vertical&quot;,&quot;curved&quot;:0,&quot;rounded&quot;:0};" vertex="1" parent="CorzBwOK-foP67jDU05y-274">
          <mxGeometry x="45" y="80" width="10" height="170" as="geometry" />
        </mxCell>
        <mxCell id="CorzBwOK-foP67jDU05y-277" value="" style="html=1;verticalAlign=bottom;endArrow=block;edgeStyle=elbowEdgeStyle;elbow=vertical;curved=0;rounded=0;" edge="1" parent="1">
          <mxGeometry relative="1" as="geometry">
            <mxPoint x="295" y="1150" as="sourcePoint" />
            <Array as="points">
              <mxPoint x="380" y="1150" />
            </Array>
            <mxPoint x="465" y="1150" as="targetPoint" />
            <mxPoint as="offset" />
          </mxGeometry>
        </mxCell>
        <mxCell id="CorzBwOK-foP67jDU05y-278" value="Menampilkan foto kegitan masjid kepada admin" style="html=1;verticalAlign=bottom;endArrow=open;dashed=1;endSize=8;edgeStyle=elbowEdgeStyle;elbow=vertical;curved=0;rounded=0;" edge="1" parent="1">
          <mxGeometry relative="1" as="geometry">
            <mxPoint x="120" y="1250" as="targetPoint" />
            <Array as="points">
              <mxPoint x="388" y="1250" />
            </Array>
            <mxPoint x="463" y="1250" as="sourcePoint" />
          </mxGeometry>
        </mxCell>
        <mxCell id="CorzBwOK-foP67jDU05y-280" value="Admin" style="shape=umlLifeline;perimeter=lifelinePerimeter;whiteSpace=wrap;html=1;container=0;dropTarget=0;collapsible=0;recursiveResize=0;outlineConnect=0;portConstraint=eastwest;newEdgeStyle={&quot;edgeStyle&quot;:&quot;elbowEdgeStyle&quot;,&quot;elbow&quot;:&quot;vertical&quot;,&quot;curved&quot;:0,&quot;rounded&quot;:0};" vertex="1" parent="1">
          <mxGeometry x="60" y="950" width="100" height="300" as="geometry" />
        </mxCell>
        <mxCell id="CorzBwOK-foP67jDU05y-281" value="" style="html=1;points=[];perimeter=orthogonalPerimeter;outlineConnect=0;targetShapes=umlLifeline;portConstraint=eastwest;newEdgeStyle={&quot;edgeStyle&quot;:&quot;elbowEdgeStyle&quot;,&quot;elbow&quot;:&quot;vertical&quot;,&quot;curved&quot;:0,&quot;rounded&quot;:0};" vertex="1" parent="CorzBwOK-foP67jDU05y-280">
          <mxGeometry x="45" y="70" width="10" height="210" as="geometry" />
        </mxCell>
        <mxCell id="CorzBwOK-foP67jDU05y-282" value="sistem" style="shape=umlLifeline;perimeter=lifelinePerimeter;whiteSpace=wrap;html=1;container=0;dropTarget=0;collapsible=0;recursiveResize=0;outlineConnect=0;portConstraint=eastwest;newEdgeStyle={&quot;edgeStyle&quot;:&quot;elbowEdgeStyle&quot;,&quot;elbow&quot;:&quot;vertical&quot;,&quot;curved&quot;:0,&quot;rounded&quot;:0};" vertex="1" parent="1">
          <mxGeometry x="240" y="950" width="100" height="300" as="geometry" />
        </mxCell>
        <mxCell id="CorzBwOK-foP67jDU05y-283" value="" style="html=1;points=[];perimeter=orthogonalPerimeter;outlineConnect=0;targetShapes=umlLifeline;portConstraint=eastwest;newEdgeStyle={&quot;edgeStyle&quot;:&quot;elbowEdgeStyle&quot;,&quot;elbow&quot;:&quot;vertical&quot;,&quot;curved&quot;:0,&quot;rounded&quot;:0};" vertex="1" parent="CorzBwOK-foP67jDU05y-282">
          <mxGeometry x="45" y="80" width="10" height="200" as="geometry" />
        </mxCell>
        <mxCell id="CorzBwOK-foP67jDU05y-286" value="database" style="shape=umlLifeline;perimeter=lifelinePerimeter;whiteSpace=wrap;html=1;container=0;dropTarget=0;collapsible=0;recursiveResize=0;outlineConnect=0;portConstraint=eastwest;newEdgeStyle={&quot;edgeStyle&quot;:&quot;elbowEdgeStyle&quot;,&quot;elbow&quot;:&quot;vertical&quot;,&quot;curved&quot;:0,&quot;rounded&quot;:0};" vertex="1" parent="1">
          <mxGeometry x="420" y="950" width="100" height="300" as="geometry" />
        </mxCell>
        <mxCell id="CorzBwOK-foP67jDU05y-287" value="" style="html=1;points=[];perimeter=orthogonalPerimeter;outlineConnect=0;targetShapes=umlLifeline;portConstraint=eastwest;newEdgeStyle={&quot;edgeStyle&quot;:&quot;elbowEdgeStyle&quot;,&quot;elbow&quot;:&quot;vertical&quot;,&quot;curved&quot;:0,&quot;rounded&quot;:0};" vertex="1" parent="CorzBwOK-foP67jDU05y-286">
          <mxGeometry x="45" y="80" width="10" height="170" as="geometry" />
        </mxCell>
        <mxCell id="CorzBwOK-foP67jDU05y-289" value="" style="html=1;verticalAlign=bottom;endArrow=block;edgeStyle=elbowEdgeStyle;elbow=vertical;curved=0;rounded=0;" edge="1" parent="1">
          <mxGeometry relative="1" as="geometry">
            <mxPoint x="295" y="1150" as="sourcePoint" />
            <Array as="points">
              <mxPoint x="380" y="1150" />
            </Array>
            <mxPoint x="465" y="1150" as="targetPoint" />
            <mxPoint as="offset" />
          </mxGeometry>
        </mxCell>
        <mxCell id="CorzBwOK-foP67jDU05y-292" value="Admin" style="shape=umlLifeline;perimeter=lifelinePerimeter;whiteSpace=wrap;html=1;container=0;dropTarget=0;collapsible=0;recursiveResize=0;outlineConnect=0;portConstraint=eastwest;newEdgeStyle={&quot;edgeStyle&quot;:&quot;elbowEdgeStyle&quot;,&quot;elbow&quot;:&quot;vertical&quot;,&quot;curved&quot;:0,&quot;rounded&quot;:0};" vertex="1" parent="1">
          <mxGeometry x="60" y="950" width="100" height="330" as="geometry" />
        </mxCell>
        <mxCell id="CorzBwOK-foP67jDU05y-293" value="" style="html=1;points=[];perimeter=orthogonalPerimeter;outlineConnect=0;targetShapes=umlLifeline;portConstraint=eastwest;newEdgeStyle={&quot;edgeStyle&quot;:&quot;elbowEdgeStyle&quot;,&quot;elbow&quot;:&quot;vertical&quot;,&quot;curved&quot;:0,&quot;rounded&quot;:0};" vertex="1" parent="CorzBwOK-foP67jDU05y-292">
          <mxGeometry x="45" y="70" width="10" height="250" as="geometry" />
        </mxCell>
        <mxCell id="CorzBwOK-foP67jDU05y-294" value="sistem" style="shape=umlLifeline;perimeter=lifelinePerimeter;whiteSpace=wrap;html=1;container=0;dropTarget=0;collapsible=0;recursiveResize=0;outlineConnect=0;portConstraint=eastwest;newEdgeStyle={&quot;edgeStyle&quot;:&quot;elbowEdgeStyle&quot;,&quot;elbow&quot;:&quot;vertical&quot;,&quot;curved&quot;:0,&quot;rounded&quot;:0};" vertex="1" parent="1">
          <mxGeometry x="240" y="950" width="100" height="330" as="geometry" />
        </mxCell>
        <mxCell id="CorzBwOK-foP67jDU05y-295" value="" style="html=1;points=[];perimeter=orthogonalPerimeter;outlineConnect=0;targetShapes=umlLifeline;portConstraint=eastwest;newEdgeStyle={&quot;edgeStyle&quot;:&quot;elbowEdgeStyle&quot;,&quot;elbow&quot;:&quot;vertical&quot;,&quot;curved&quot;:0,&quot;rounded&quot;:0};" vertex="1" parent="CorzBwOK-foP67jDU05y-294">
          <mxGeometry x="45" y="80" width="10" height="200" as="geometry" />
        </mxCell>
        <mxCell id="CorzBwOK-foP67jDU05y-298" value="database" style="shape=umlLifeline;perimeter=lifelinePerimeter;whiteSpace=wrap;html=1;container=0;dropTarget=0;collapsible=0;recursiveResize=0;outlineConnect=0;portConstraint=eastwest;newEdgeStyle={&quot;edgeStyle&quot;:&quot;elbowEdgeStyle&quot;,&quot;elbow&quot;:&quot;vertical&quot;,&quot;curved&quot;:0,&quot;rounded&quot;:0};" vertex="1" parent="1">
          <mxGeometry x="420" y="950" width="100" height="330" as="geometry" />
        </mxCell>
        <mxCell id="CorzBwOK-foP67jDU05y-299" value="" style="html=1;points=[];perimeter=orthogonalPerimeter;outlineConnect=0;targetShapes=umlLifeline;portConstraint=eastwest;newEdgeStyle={&quot;edgeStyle&quot;:&quot;elbowEdgeStyle&quot;,&quot;elbow&quot;:&quot;vertical&quot;,&quot;curved&quot;:0,&quot;rounded&quot;:0};" vertex="1" parent="CorzBwOK-foP67jDU05y-298">
          <mxGeometry x="45" y="80" width="10" height="230" as="geometry" />
        </mxCell>
        <mxCell id="CorzBwOK-foP67jDU05y-301" value="" style="html=1;verticalAlign=bottom;endArrow=block;edgeStyle=elbowEdgeStyle;elbow=vertical;curved=0;rounded=0;" edge="1" parent="1">
          <mxGeometry relative="1" as="geometry">
            <mxPoint x="295" y="1150" as="sourcePoint" />
            <Array as="points">
              <mxPoint x="380" y="1150" />
            </Array>
            <mxPoint x="465" y="1150" as="targetPoint" />
            <mxPoint as="offset" />
          </mxGeometry>
        </mxCell>
        <mxCell id="CorzBwOK-foP67jDU05y-307" value="Meminta informasi foto kegiatan" style="html=1;verticalAlign=bottom;endArrow=open;dashed=1;endSize=8;edgeStyle=elbowEdgeStyle;elbow=vertical;curved=0;rounded=0;" edge="1" parent="1">
          <mxGeometry relative="1" as="geometry">
            <mxPoint x="120" y="1082" as="targetPoint" />
            <Array as="points">
              <mxPoint x="205" y="1082" />
            </Array>
            <mxPoint x="280" y="1082" as="sourcePoint" />
          </mxGeometry>
        </mxCell>
        <mxCell id="CorzBwOK-foP67jDU05y-308" value="mengaupload foto kegiatan" style="html=1;verticalAlign=bottom;endArrow=block;edgeStyle=elbowEdgeStyle;elbow=vertical;curved=0;rounded=0;" edge="1" parent="1">
          <mxGeometry relative="1" as="geometry">
            <mxPoint x="115" y="1131" as="sourcePoint" />
            <Array as="points">
              <mxPoint x="200" y="1131" />
            </Array>
            <mxPoint x="285" y="1131" as="targetPoint" />
            <mxPoint as="offset" />
          </mxGeometry>
        </mxCell>
        <mxCell id="CorzBwOK-foP67jDU05y-310" value="mengaupload foto kegiatan" style="html=1;verticalAlign=bottom;endArrow=block;edgeStyle=elbowEdgeStyle;elbow=vertical;curved=0;rounded=0;" edge="1" parent="1">
          <mxGeometry relative="1" as="geometry">
            <mxPoint x="115" y="1131" as="sourcePoint" />
            <Array as="points">
              <mxPoint x="200" y="1131" />
            </Array>
            <mxPoint x="285" y="1131" as="targetPoint" />
            <mxPoint as="offset" />
          </mxGeometry>
        </mxCell>
        <mxCell id="CorzBwOK-foP67jDU05y-312" value="Memulai proses" style="html=1;verticalAlign=bottom;endArrow=block;edgeStyle=elbowEdgeStyle;elbow=vertical;curved=0;rounded=0;" edge="1" parent="1">
          <mxGeometry relative="1" as="geometry">
            <mxPoint x="116" y="1041" as="sourcePoint" />
            <Array as="points">
              <mxPoint x="201" y="1041" />
            </Array>
            <mxPoint x="286" y="1041" as="targetPoint" />
            <mxPoint as="offset" />
          </mxGeometry>
        </mxCell>
      </root>
    </mxGraphModel>
  </diagram>
</mxfile>
